<?xml version="1.0"?>
<svg xmlns="http://www.w3.org/2000/svg" xmlns:xlink="http://www.w3.org/1999/xlink" xmlns:svgjs="http://svgjs.com/svgjs" version="1.1" width="512" height="512" x="0" y="0" viewBox="0 0 512 512" style="enable-background:new 0 0 512 512" xml:space="preserve" class=""><g><g xmlns="http://www.w3.org/2000/svg"><path d="m457.021 442.008-70.036-.017c-13.215-.003-24.061-10.321-24.923-23.322 8.666-1.579 17.319-4.518 25.932-8.825 8.07-4.035 10.777-14.23 5.773-21.737l-20.905-31.358c28.706-7.234 55.752-26.404 78.014-55.764 25.751-33.958 41.124-77.318 41.124-115.985 0-38.437-15.3-73.279-43.08-98.108-26.619-23.79-62.816-36.892-101.92-36.892-27.065 0-52.558 6.168-74.685 17.96-6.694-11.491-15.2-21.956-25.395-31.068-26.619-23.79-62.816-36.892-101.92-36.892s-75.301 13.102-101.92 36.892c-27.78 24.829-43.08 59.671-43.08 98.108 0 38.667 15.373 82.027 41.124 115.987 22.262 29.359 49.308 48.53 78.014 55.764l-20.905 31.358c-5.005 7.507-2.297 17.702 5.773 21.737 8.634 4.317 17.307 7.259 25.994 8.835v8.319c0 24.798 20.175 44.985 45.009 45 8.267.005 14.991 6.734 14.991 15 0 8.271-6.729 15-15 15h-30c-24.813 0-45 20.187-45 45 0 8.284 6.716 15 15 15s15-6.716 15-15c0-8.271 6.729-15 15-15h30c24.813 0 45-20.187 45-45 0-24.798-20.175-44.985-45.009-45-8.267-.005-14.991-6.734-14.991-15v-8.32c8.687-1.577 17.36-4.518 25.994-8.835 8.07-4.035 10.777-14.23 5.773-21.737l-20.905-31.358c19.728-4.971 38.669-15.584 55.814-31.267 11.119 20.281 25.374 38.409 41.332 52.321 16.552 14.43 34.585 24.197 53.149 28.919l-20.924 31.385c-5.005 7.507-2.297 17.702 5.773 21.737 8.648 4.324 17.336 7.268 26.037 8.842.897 29.537 25.186 53.297 54.936 53.304l70.036.017c13.776.003 24.985 11.215 24.985 24.992 0 8.284 6.716 15 15 15s15-6.716 15-15c0-30.316-24.663-54.985-54.979-54.992zm-323.206-103.19 11.185-16.776 11.185 16.776c-7.467 1.537-14.903 1.537-22.37 0zm91.157-105.957c-31.101 41.015-63.454 47.139-79.972 47.139-61.934 0-115-79.729-115-145 0-30.213 11.437-56.403 33.072-75.74 21.113-18.868 50.208-29.26 81.928-29.26s60.815 10.392 81.928 29.26c21.635 19.337 33.072 45.527 33.072 75.74 0 32.351-13.095 68.935-35.028 97.861zm23.272 18.941c.21-.274.423-.54.632-.815 25.751-33.96 41.124-77.32 41.124-115.987 0-13.68-1.948-26.9-5.697-39.379 18.266-10.237 39.705-15.621 62.697-15.621 66.636 0 115 44.159 115 105 0 65.271-53.066 145-115 145-42.999 0-79.603-38.069-98.756-78.198zm87.571 137.016 11.185-16.776 11.185 16.776c-7.467 1.537-14.903 1.537-22.37 0z" fill="#9baec8" data-original="#000000" style="" class=""/></g></g></svg>
