<?xml version="1.0"?>
<svg xmlns="http://www.w3.org/2000/svg" xmlns:xlink="http://www.w3.org/1999/xlink" xmlns:svgjs="http://svgjs.com/svgjs" version="1.1" width="512" height="512" x="0" y="0" viewBox="0 0 511.99898 511" style="enable-background:new 0 0 512 512" xml:space="preserve" class=""><g><path xmlns="http://www.w3.org/2000/svg" d="m278.4375 324.074219c0-7.296875-10.183594-28.609375-22.433594-49.9375-12.253906 21.335937-22.441406 42.652343-22.441406 49.9375 0 11.988281 9.445312 21.808593 21.285156 22.410156.382813.007813.765625.03125 1.152344.03125s.769531-.023437 1.152344-.03125c11.839844-.601563 21.285156-10.421875 21.285156-22.410156zm0 0" fill="#2b90d9" data-original="#000000" style="" class=""/><path xmlns="http://www.w3.org/2000/svg" d="m243.199219 236.574219c2.804687-4.351563 7.625-6.980469 12.800781-6.980469s9.996094 2.628906 12.800781 6.980469c8.476563 13.152343 34.238281 54.617187 39.238281 79.851562 5.117188-8.839843 8.066407-19.089843 8.066407-30.019531 0-23.195312-32.949219-85.035156-60.105469-129.761719-27.160156 44.726563-60.105469 106.570313-60.105469 129.761719 0 10.929688 2.945313 21.179688 8.066407 30.019531 5-25.234375 30.761718-66.699219 39.238281-79.851562zm0 0" fill="#2b90d9" data-original="#000000" style="" class=""/><path xmlns="http://www.w3.org/2000/svg" d="m365.167969.5c-41.992188 0-81.503907 17.871094-109.167969 48.628906-27.660156-30.757812-67.175781-48.628906-109.167969-48.628906-80.964843 0-146.832031 65.867188-146.832031 146.832031 0 47.738281 13.34375 95.042969 39.660156 140.601563 20.757813 35.933594 49.589844 70.835937 85.695313 103.742187 61.046875 55.632813 121.285156 86.121094 123.820312 87.394531 2.148438 1.074219 4.484375 1.613282 6.824219 1.613282s4.675781-.539063 6.824219-1.613282c2.535156-1.273437 62.773437-31.761718 123.820312-87.394531 36.105469-32.90625 64.9375-67.808593 85.691407-103.742187 26.320312-45.558594 39.664062-92.867188 39.664062-140.601563 0-80.964843-65.867188-146.832031-146.832031-146.832031zm-199.730469 285.90625c0-20.117188 12.933594-53.535156 39.535156-102.164062 18.878906-34.507813 37.445313-63.378907 38.226563-64.589844 2.804687-4.351563 7.625-6.980469 12.800781-6.980469s9.996094 2.628906 12.800781 6.980469c.78125 1.210937 19.347657 30.082031 38.226563 64.589844 26.601562 48.628906 39.535156 82.046874 39.535156 102.164062 0 49.9375-40.628906 90.5625-90.5625 90.5625-49.9375 0-90.5625-40.625-90.5625-90.5625zm0 0" fill="#2b90d9" data-original="#000000" style="" class=""/></g></svg>
