<?xml version="1.0"?>
<svg xmlns="http://www.w3.org/2000/svg" xmlns:xlink="http://www.w3.org/1999/xlink" xmlns:svgjs="http://svgjs.com/svgjs" version="1.1" width="512" height="512" x="0" y="0" viewBox="0 0 192 192" style="enable-background:new 0 0 512 512" xml:space="preserve" class=""><g><g xmlns="http://www.w3.org/2000/svg" id="_16-confident" data-name="16-confident"><g id="Glyph"><path d="m188.818 81.842a8 8 0 0 0 -6.458-5.442l-54.716-7.951-24.47-49.58a8 8 0 0 0 -14.348 0l-24.47 49.58-54.716 7.951a8 8 0 0 0 -4.433 13.642l39.593 38.594-9.347 54.5a8 8 0 0 0 11.608 8.433l48.939-25.734 48.939 25.729a8 8 0 0 0 11.608-8.433l-9.347-54.495 39.593-38.594a8 8 0 0 0 2.025-8.2z" fill="#2b90d9" data-original="#000000" style="" class=""/><path d="m189.311 42.833a10.417 10.417 0 0 1 -10.4-10.4 2.689 2.689 0 1 0 -5.377 0 10.417 10.417 0 0 1 -10.4 10.4 2.689 2.689 0 1 0 0 5.378 10.416 10.416 0 0 1 10.405 10.4 2.689 2.689 0 1 0 5.377 0 10.416 10.416 0 0 1 10.405-10.4 2.689 2.689 0 0 0 0-5.378z" fill="#2b90d9" data-original="#000000" style="" class=""/><path d="m149.311 12.833a10.417 10.417 0 0 1 -10.4-10.4 2.689 2.689 0 1 0 -5.377 0 10.417 10.417 0 0 1 -10.4 10.4 2.689 2.689 0 1 0 0 5.378 10.416 10.416 0 0 1 10.405 10.4 2.689 2.689 0 1 0 5.377 0 10.416 10.416 0 0 1 10.405-10.4 2.689 2.689 0 0 0 0-5.378z" fill="#2b90d9" data-original="#000000" style="" class=""/><path d="m61.311 37.833a10.417 10.417 0 0 1 -10.4-10.4 2.689 2.689 0 1 0 -5.377 0 10.417 10.417 0 0 1 -10.4 10.4 2.689 2.689 0 0 0 0 5.378 10.416 10.416 0 0 1 10.405 10.4 2.689 2.689 0 1 0 5.377 0 10.416 10.416 0 0 1 10.405-10.4 2.689 2.689 0 0 0 0-5.378z" fill="#2b90d9" data-original="#000000" style="" class=""/></g></g></g></svg>
