<?xml version="1.0"?>
<svg xmlns="http://www.w3.org/2000/svg" xmlns:xlink="http://www.w3.org/1999/xlink" xmlns:svgjs="http://svgjs.com/svgjs" version="1.1" width="512" height="512" x="0" y="0" viewBox="0 0 496 496" style="enable-background:new 0 0 512 512" xml:space="preserve" class=""><g><path xmlns="http://www.w3.org/2000/svg" d="m396.189 272.832c0 8.41-6.195 13.358-12.676 13.358h-2.203v-26.034h2.203c6.99-.001 12.676 5.686 12.676 12.676zm-396.189-160.832v-32c0-26.51 21.49-48 48-48h400c26.51 0 48 21.49 48 48v32c0 8.837-7.163 16-16 16h-464c-8.837 0-16-7.163-16-16zm144-26c0 15.094 19.104 21.664 28.37 10.14 5.508-6.673 4.706-16.793-2.22-22.51-10.653-8.573-26.15-.966-26.15 12.37zm-48 0c0 15.151 18.942 21.588 28.37 10.15 5.7-7.079 4.471-16.997-2.22-22.52-10.663-8.581-26.15-.948-26.15 12.37zm-48 0c0 14.495 17.675 21.206 27.31 11.31 6.312-6.316 6.178-16.605 0-22.62-9.69-9.953-27.31-3.124-27.31 11.31zm448 90v240c0 26.51-21.49 48-48 48h-400c-26.51 0-48-21.49-48-48v-240c0-8.837 7.163-16 16-16h464c8.837 0 16 7.163 16 16zm-350 68.155c0-8.837-7.164-16-16-16s-16 7.163-16 16v28.845h-14v-28.845c0-8.837-7.164-16-16-16s-16 7.163-16 16v89.689c0 8.837 7.164 16 16 16s16-7.163 16-16v-28.844h14v28.845c0 8.837 7.164 16 16 16s16-7.163 16-16zm95-.155c0-8.836-7.164-16-16-16h-48c-8.836 0-16 7.164-16 16s7.164 16 16 16h8v74c0 8.837 7.164 16 16 16s16-7.163 16-16v-74h8c8.836 0 16-7.164 16-16zm94 0c0-8.836-7.164-16-16-16h-48c-8.836 0-16 7.164-16 16s7.164 16 16 16h8v74c0 8.837 7.164 16 16 16s16-7.163 16-16v-74h8c8.836 0 16-7.164 16-16zm93.189 28.832c0-24.635-20.042-44.677-44.676-44.677h-18.203c-8.836 0-16 7.163-16 16v89.689c0 8.837 7.164 16 16 16s16-7.163 16-16v-15.654c29.142 0 46.879-21.301 46.879-45.358z" fill="#af2e2f" data-original="#000000" style="" class=""/></g></svg>
